<svg width="45" height="33" viewBox="0 0 45 33" fill="none" xmlns="http://www.w3.org/2000/svg">
<path fill-rule="evenodd" clip-rule="evenodd" d="M44.2814 0.214975C44.1374 0.0760796 43.9445 -0.00100882 43.7442 9.97104e-06H0.767505C0.567143 -0.00100882 0.374592 0.0760796 0.230263 0.214975C0.0818592 0.360322 -0.00134201 0.559665 1.63762e-05 0.767499V32.2325C-0.00134201 32.4403 0.0818592 32.6397 0.230263 32.785C0.374592 32.9243 0.567143 33.0013 0.767505 33H43.7442C43.9445 33.0013 44.1374 32.9243 44.2814 32.785C44.4298 32.6397 44.513 32.4403 44.5116 32.2325V0.767499C44.513 0.559665 44.4298 0.360322 44.2814 0.214975Z" fill="#F2A149"/>
<path fill-rule="evenodd" clip-rule="evenodd" d="M44.2816 32.785C44.1376 32.9243 43.9447 33.0013 43.7444 33H0.767711C0.567349 33.0013 0.374797 32.9243 0.230469 32.785L17.4749 16.5L21.7266 20.5137C22.0231 20.7962 22.489 20.7962 22.7855 20.5137L27.0372 16.5L44.2816 32.785Z" fill="#FDCD56"/>
<path fill-rule="evenodd" clip-rule="evenodd" d="M44.2816 0.214975L27.0372 16.5L22.7855 20.5137C22.489 20.7962 22.0231 20.7962 21.7266 20.5137L17.4749 16.5L0.230469 0.214975C0.374797 0.0760796 0.567349 -0.00100882 0.767711 9.97104e-06H43.7444C43.9447 -0.00100882 44.1376 0.0760796 44.2816 0.214975Z" fill="#FAB153"/>
<path fill-rule="evenodd" clip-rule="evenodd" d="M36.8363 3.83737H35.3017C34.8779 3.83737 34.5342 3.49404 34.5342 3.07022C34.5342 2.64607 34.8779 2.30273 35.3017 2.30273H36.8363C37.2605 2.30273 37.6038 2.64607 37.6038 3.07022C37.6038 3.49404 37.2605 3.83737 36.8363 3.83737Z" fill="#FFD67B"/>
<path fill-rule="evenodd" clip-rule="evenodd" d="M32.2316 3.83737H12.2782C11.8544 3.83737 11.5107 3.49404 11.5107 3.07022C11.5107 2.64607 11.8544 2.30273 12.2782 2.30273H32.2316C32.6554 2.30273 32.9991 2.64607 32.9991 3.07022C32.9991 3.49404 32.6554 3.83737 32.2316 3.83737Z" fill="#FFD67B"/>
<path fill-rule="evenodd" clip-rule="evenodd" d="M9.20838 3.83737H7.67374C7.24992 3.83737 6.90625 3.49404 6.90625 3.07022C6.90625 2.64607 7.24992 2.30273 7.67374 2.30273H9.20838C9.63219 2.30273 9.97587 2.64607 9.97587 3.07022C9.97587 3.49404 9.63219 3.83737 9.20838 3.83737Z" fill="#FFD67B"/>
</svg>
