<svg width="40" height="40" viewBox="0 0 40 40" fill="none" xmlns="http://www.w3.org/2000/svg">
<rect width="40" height="40" fill="#FCFCFC"/>
<path d="M19.5734 27.76V12.2948C19.5734 12.0087 19.3416 11.7769 19.0555 11.7769C18.7694 11.7769 18.5376 12.0087 18.5376 12.2948V27.76C18.5376 28.0461 18.7694 28.2779 19.0555 28.2779C19.3416 28.2779 19.5734 28.0461 19.5734 27.76Z" fill="#808181"/>
<path d="M34.5932 8.40433C33.4982 8.40433 32.1338 7.93185 30.6892 7.43168C28.8598 6.79815 26.7861 6.08018 24.6356 6.08018C22.1471 6.08018 20.629 7.17064 19.7937 8.08543C19.5159 8.39024 19.2686 8.72162 19.0556 9.0748C18.8426 8.72162 18.5954 8.39024 18.3176 8.08543C17.4822 7.17064 15.9641 6.08018 13.4757 6.08018C11.3251 6.08018 9.25145 6.79815 7.42201 7.43168C5.97729 7.93185 4.61288 8.40433 3.51792 8.40433C3.4499 8.40432 3.38255 8.41771 3.31971 8.44374C3.25687 8.46976 3.19977 8.50791 3.15168 8.55601C3.10358 8.6041 3.06543 8.6612 3.03941 8.72404C3.01338 8.78688 2.99999 8.85424 3 8.92225V29.7836C3 30.0697 3.23182 30.3015 3.51792 30.3015C4.78717 30.3015 6.23162 29.8013 7.7608 29.2718C9.5131 28.6651 11.4992 27.9773 13.4755 27.9773C15.1702 27.9773 16.5418 28.5385 17.5525 29.6452C17.6457 29.7443 17.7742 29.8027 17.9101 29.8079C18.0461 29.813 18.1786 29.7645 18.2791 29.6727C18.3796 29.581 18.4399 29.4534 18.447 29.3175C18.4542 29.1816 18.4076 29.0484 18.3173 28.9466C17.482 28.0319 15.9639 26.9414 13.4755 26.9414C11.3249 26.9414 9.25131 27.6594 7.42187 28.2929C6.19716 28.7171 5.02997 29.1212 4.03584 29.2344V9.41448C5.17465 9.306 6.43589 8.86922 7.7608 8.41048C9.5131 7.80375 11.4992 7.11602 13.4755 7.11602C17.4726 7.11602 18.5184 10.29 18.5604 10.4234C18.593 10.5293 18.6587 10.6219 18.7478 10.6877C18.8369 10.7535 18.9448 10.789 19.0556 10.789C19.1663 10.789 19.2742 10.7535 19.3633 10.6877C19.4524 10.6219 19.5181 10.5293 19.5507 10.4234C19.5608 10.3903 20.613 7.11602 24.6356 7.11602C26.6119 7.11602 28.598 7.80375 30.3503 8.41048C31.6753 8.86929 32.9365 9.306 34.0753 9.41448V29.2344C33.0811 29.1212 31.9139 28.7171 30.6892 28.293C28.8598 27.6595 26.7861 26.9415 24.6356 26.9415C22.1471 26.9415 20.6289 28.032 19.7937 28.9467C19.7034 29.0485 19.6568 29.1818 19.664 29.3176C19.6712 29.4535 19.7315 29.5811 19.8319 29.6729C19.9324 29.7646 20.0649 29.8132 20.2009 29.808C20.3369 29.8029 20.4653 29.7444 20.5586 29.6453C21.5692 28.5386 22.9409 27.9774 24.6356 27.9774C26.6119 27.9774 28.598 28.6651 30.3503 29.2719C31.8796 29.8014 33.324 30.3016 34.5932 30.3016C34.8793 30.3016 35.1111 30.0697 35.1111 29.7836V8.92225C35.1111 8.78489 35.0565 8.65316 34.9594 8.55603C34.8623 8.4589 34.7306 8.40433 34.5932 8.40433Z" fill="#808181"/>
<path d="M34.1667 30.56C33.0717 30.56 32.1338 30.8648 30.6892 30.3647C28.8598 29.7312 26.7861 29.0132 24.6356 29.0132C22.2985 29.0132 20.8174 29.975 19.9538 30.8498L18.1572 30.8497C17.2937 29.9749 15.8125 29.0132 13.4755 29.0132C11.3249 29.0132 9.25131 29.7312 7.42187 30.3647C5.97729 30.8648 4.61288 31.3373 3.51792 31.3373C3.23182 31.3373 3 31.5692 3 31.8553C3 32.1414 3.23182 32.3732 3.51792 32.3732C4.78717 32.3732 6.23162 31.873 7.7608 31.3435C9.5131 30.7368 11.4992 30.049 13.4755 30.049C15.1702 30.049 16.5418 30.6102 17.5525 31.7169C17.601 31.77 17.6601 31.8124 17.7259 31.8415C17.7918 31.8705 17.8629 31.8855 17.9349 31.8855L20.1761 31.8856C20.248 31.8856 20.3192 31.8706 20.385 31.8415C20.4509 31.8125 20.51 31.7701 20.5585 31.7169C21.5691 30.6102 22.9408 30.049 24.6355 30.049C26.6118 30.049 28.5979 30.7368 30.3502 31.3435C31.8795 31.873 30.5364 31.5045 31.8056 31.5045C32.0917 31.5045 31.8056 30.3739 31.8056 30.0878C31.8056 29.8017 34.4528 30.56 34.1667 30.56Z" fill="#808181"/>
<circle cx="29.4445" cy="25.8378" r="7.55556" fill="#FCFCFC"/>
<path d="M36.1133 25.8378C36.1133 29.5209 33.1276 32.5066 29.4445 32.5066C25.7614 32.5066 22.7756 29.5209 22.7756 25.8378C22.7756 22.1547 25.7614 19.169 29.4445 19.169C33.1276 19.169 36.1133 22.1547 36.1133 25.8378ZM29.4445 33.4406C31.3726 33.4406 33.1332 32.7228 34.4734 31.5399C36.0517 30.1468 37.0472 28.1085 37.0472 25.8378C37.0472 21.6389 33.6434 18.235 29.4445 18.235C25.2456 18.235 21.8417 21.6389 21.8417 25.8378C21.8417 30.0367 25.2456 33.4406 29.4445 33.4406Z" fill="#C47A2C" stroke="#C47A2C" stroke-width="0.0944444"/>
<path d="M29.2875 26.1618C29.2875 26.62 29.2512 27.0304 29.1787 27.3928C29.1088 27.7527 28.9975 28.0582 28.8448 28.3093C28.692 28.5605 28.4927 28.752 28.2467 28.8841C28.0008 29.0161 27.703 29.0821 27.3535 29.0821C26.916 29.0821 26.5549 28.9669 26.2701 28.7365C25.9853 28.5035 25.7743 28.1695 25.6371 27.7346C25.4999 27.2971 25.4313 26.7728 25.4313 26.1618C25.4313 25.5508 25.4934 25.0278 25.6177 24.5929C25.7445 24.1554 25.949 23.8201 26.2312 23.5871C26.5134 23.3541 26.8875 23.2376 27.3535 23.2376C27.7937 23.2376 28.1561 23.3541 28.4409 23.5871C28.7283 23.8175 28.9406 24.1515 29.0778 24.589C29.2176 25.024 29.2875 25.5482 29.2875 26.1618ZM26.3516 26.1618C26.3516 26.6408 26.3827 27.0407 26.4448 27.3618C26.5095 27.6828 26.6157 27.9236 26.7633 28.0841C26.9108 28.242 27.1076 28.321 27.3535 28.321C27.5995 28.321 27.7963 28.242 27.9438 28.0841C28.0914 27.9262 28.1975 27.6867 28.2623 27.3657C28.3296 27.0446 28.3632 26.6433 28.3632 26.1618C28.3632 25.6854 28.3309 25.2867 28.2661 24.9657C28.2014 24.6447 28.0953 24.4039 27.9477 24.2434C27.8001 24.0803 27.6021 23.9987 27.3535 23.9987C27.105 23.9987 26.9069 24.0803 26.7594 24.2434C26.6144 24.4039 26.5095 24.6447 26.4448 24.9657C26.3827 25.2867 26.3516 25.6854 26.3516 26.1618ZM32.6777 29.0045H31.7612V25.3502C31.7612 25.2285 31.7625 25.1068 31.7651 24.9851C31.7677 24.8634 31.7703 24.7444 31.7729 24.6279C31.778 24.5114 31.7845 24.4 31.7923 24.2939C31.7379 24.3534 31.6706 24.4182 31.5903 24.4881C31.5127 24.558 31.4298 24.6304 31.3418 24.7055L30.6894 25.2259L30.2311 24.6473L31.9165 23.3269H32.6777V29.0045Z" fill="#C47A2C"/>
</svg>
