<svg width="40" height="40" viewBox="0 0 40 40" fill="none" xmlns="http://www.w3.org/2000/svg">
<rect width="40" height="40" fill="#FCFCFC"/>
<path d="M20.5484 29.0353V12.6604C20.5484 12.3575 20.3029 12.112 20 12.112C19.6971 12.112 19.4516 12.3575 19.4516 12.6604V29.0353C19.4516 29.3382 19.6971 29.5837 20 29.5837C20.3029 29.5837 20.5484 29.3382 20.5484 29.0353Z" fill="#808181"/>
<path d="M36.4516 8.54105C35.2922 8.54105 33.8476 8.04077 32.318 7.51118C30.381 6.84039 28.1853 6.08018 25.9082 6.08018C23.2734 6.08018 21.666 7.23479 20.7816 8.20339C20.4874 8.52613 20.2256 8.877 20.0001 9.25095C19.7745 8.877 19.5128 8.52613 19.2186 8.20339C18.3341 7.23479 16.7267 6.08018 14.0919 6.08018C11.8148 6.08018 9.61918 6.84039 7.68213 7.51118C6.15242 8.04077 4.70775 8.54105 3.54839 8.54105C3.47637 8.54104 3.40505 8.55521 3.33852 8.58277C3.27198 8.61033 3.21152 8.65072 3.1606 8.70164C3.10967 8.75257 3.06928 8.81303 3.04172 8.87956C3.01417 8.9461 2.99999 9.01742 3 9.08943V31.1779C3 31.4808 3.24546 31.7263 3.54839 31.7263C4.8923 31.7263 6.42172 31.1967 8.04085 30.636C9.89622 29.9936 11.9992 29.2654 14.0918 29.2654C15.8861 29.2654 17.3384 29.8596 18.4085 31.0314C18.5072 31.1363 18.6432 31.1982 18.7872 31.2036C18.9312 31.2091 19.0715 31.1577 19.1779 31.0605C19.2842 30.9634 19.3481 30.8283 19.3557 30.6844C19.3633 30.5405 19.3139 30.3995 19.2184 30.2917C18.3339 29.3232 16.7265 28.1686 14.0918 28.1686C11.8146 28.1686 9.61903 28.9288 7.68198 29.5996C6.38523 30.0487 5.14938 30.4765 4.09677 30.5964V9.61062C5.30257 9.49575 6.638 9.03328 8.04085 8.54755C9.89622 7.90514 11.9992 7.17695 14.0918 7.17695C18.3239 7.17695 19.4312 10.5376 19.4757 10.6789C19.5103 10.791 19.5798 10.8891 19.6741 10.9588C19.7685 11.0284 19.8827 11.066 20 11.066C20.1173 11.066 20.2315 11.0284 20.3259 10.9588C20.4202 10.8891 20.4897 10.791 20.5243 10.6789C20.5349 10.6439 21.649 7.17695 25.9082 7.17695C28.0008 7.17695 30.1038 7.90514 31.9592 8.54755C33.3621 9.03335 34.6974 9.49575 35.9032 9.61062V30.5964C34.8506 30.4765 33.6148 30.0487 32.318 29.5996C30.381 28.9288 28.1853 28.1686 25.9082 28.1686C23.2734 28.1686 21.6659 29.3232 20.7816 30.2918C20.686 30.3996 20.6367 30.5407 20.6442 30.6846C20.6518 30.8284 20.7157 30.9635 20.8221 31.0607C20.9284 31.1578 21.0688 31.2092 21.2127 31.2038C21.3567 31.1983 21.4927 31.1364 21.5914 31.0315C22.6615 29.8596 24.1139 29.2655 25.9082 29.2655C28.0008 29.2655 30.1038 29.9937 31.9592 30.6361C33.5784 31.1967 35.1078 31.7263 36.4516 31.7263C36.7545 31.7263 37 31.4809 37 31.178V9.08943C37 8.94399 36.9422 8.80451 36.8394 8.70167C36.7365 8.59882 36.5971 8.54105 36.4516 8.54105Z" fill="#808181"/>
<path d="M36 32C34.8406 32 33.8476 32.3228 32.318 31.7932C30.381 31.1224 28.1853 30.3622 25.9083 30.3622C23.4337 30.3622 21.8655 31.3806 20.9511 32.3068L19.0488 32.3067C18.1345 31.3805 16.5661 30.3622 14.0918 30.3622C11.8146 30.3622 9.61903 31.1224 7.68198 31.7932C6.15242 32.3228 4.70775 32.823 3.54839 32.823C3.24546 32.823 3 33.0685 3 33.3714C3 33.6744 3.24546 33.9198 3.54839 33.9198C4.8923 33.9198 6.42172 33.3902 8.04085 32.8295C9.89622 32.1871 11.9992 31.4589 14.0918 31.4589C15.8861 31.4589 17.3384 32.0531 18.4085 33.2249C18.4599 33.2812 18.5224 33.3261 18.5922 33.3568C18.6619 33.3876 18.7372 33.4035 18.8134 33.4035L21.1864 33.4035C21.2626 33.4035 21.338 33.3876 21.4077 33.3569C21.4774 33.3261 21.54 33.2812 21.5913 33.225C22.6614 32.0531 24.1138 31.4589 25.9082 31.4589C28.0008 31.4589 30.1037 32.1871 31.9591 32.8295C33.5783 33.3902 32.1562 33 33.5 33C33.8029 33 33.5 31.8029 33.5 31.5C33.5 31.1971 36.3029 32 36 32Z" fill="#808181"/>
<circle cx="31" cy="27" r="8" fill="#FCFCFC"/>
<path d="M38.0611 27C38.0611 30.8997 34.8997 34.0611 31 34.0611C27.1003 34.0611 23.9389 30.8997 23.9389 27C23.9389 23.1003 27.1003 19.9389 31 19.9389C34.8997 19.9389 38.0611 23.1003 38.0611 27ZM31 35.05C33.0415 35.05 34.9057 34.29 36.3247 33.0375C37.9959 31.5625 39.05 29.4043 39.05 27C39.05 22.5541 35.4459 18.95 31 18.95C26.5541 18.95 22.95 22.5541 22.95 27C22.95 31.4459 26.5541 35.05 31 35.05Z" fill="#808181" stroke="#808181" stroke-width="0.1"/>
<path d="M30.8338 26.9901C30.8338 27.4753 30.7954 27.9098 30.7186 28.2936C30.6446 28.6746 30.5268 28.9981 30.365 29.264C30.2033 29.5299 29.9922 29.7327 29.7318 29.8725C29.4714 30.0123 29.1561 30.0822 28.7861 30.0822C28.3228 30.0822 27.9404 29.9603 27.6389 29.7163C27.3373 29.4696 27.1139 29.116 26.9686 28.6554C26.8234 28.1922 26.7507 27.6371 26.7507 26.9901C26.7507 26.3432 26.8165 25.7895 26.9481 25.3289C27.0824 24.8657 27.299 24.5107 27.5978 24.264C27.8966 24.0173 28.2927 23.8939 28.7861 23.8939C29.2521 23.8939 29.6359 24.0173 29.9374 24.264C30.2417 24.5079 30.4665 24.8616 30.6117 25.3248C30.7598 25.7854 30.8338 26.3405 30.8338 26.9901ZM27.7252 26.9901C27.7252 27.4973 27.7581 27.9208 27.8239 28.2607C27.8924 28.6006 28.0048 28.8555 28.1611 29.0255C28.3173 29.1927 28.5257 29.2763 28.7861 29.2763C29.0465 29.2763 29.2548 29.1927 29.4111 29.0255C29.5673 28.8583 29.6797 28.6047 29.7483 28.2648C29.8195 27.9249 29.8552 27.5 29.8552 26.9901C29.8552 26.4857 29.8209 26.0636 29.7524 25.7237C29.6838 25.3838 29.5714 25.1288 29.4152 24.9589C29.2589 24.7862 29.0492 24.6998 28.7861 24.6998C28.5229 24.6998 28.3132 24.7862 28.157 24.9589C28.0035 25.1288 27.8924 25.3838 27.8239 25.7237C27.7581 26.0636 27.7252 26.4857 27.7252 26.9901ZM34.4234 30H33.453V26.1308C33.453 26.0019 33.4544 25.8731 33.4571 25.7442C33.4599 25.6154 33.4626 25.4893 33.4654 25.366C33.4708 25.2426 33.4777 25.1247 33.4859 25.0123C33.4284 25.0754 33.3571 25.1439 33.2721 25.2179C33.1899 25.2919 33.1021 25.3687 33.0089 25.4482L32.3182 25.9992L31.833 25.3865L33.6175 23.9885H34.4234V30Z" fill="#808181"/>
</svg>
