<svg width="161" height="161" viewBox="0 0 161 161" fill="none" xmlns="http://www.w3.org/2000/svg">
<path d="M149.897 8.32761V108.259C149.897 110.468 149.02 112.586 147.458 114.147C145.896 115.709 143.778 116.587 141.569 116.587H8.32761C6.11899 116.587 4.00083 115.709 2.4391 114.147C0.877371 112.586 0 110.468 0 108.259V8.32761C0.0280551 6.12771 0.914433 4.02581 2.47012 2.47012C4.02581 0.914433 6.12771 0.0280551 8.32761 0H141.569C143.77 0.0266475 145.872 0.912574 147.428 2.46856C148.984 4.02456 149.87 6.12727 149.897 8.32761Z" fill="#D0E0EF"/>
<path d="M147.26 114.339C145.721 115.789 143.684 116.594 141.569 116.587H8.32725C6.21248 116.594 4.1757 115.789 2.63672 114.339L68.4249 58.2939H81.4714L147.26 114.339Z" fill="#C1D2E0"/>
<path d="M147.26 2.2485L80.6942 58.9595C79.0875 60.3173 77.0518 61.0623 74.9481 61.0623C72.8445 61.0623 70.8088 60.3173 69.2021 58.9595L2.63672 2.2485C4.1757 0.798037 6.21248 -0.00674085 8.32725 4.2536e-05H141.569C143.684 -0.00674085 145.721 0.798037 147.26 2.2485Z" fill="#E9F4FF"/>
<path d="M96.389 69.0528L51.4921 144.754C50.521 146.374 49.995 148.222 49.967 150.111C49.939 152 50.4102 153.863 51.3329 155.511C52.2556 157.16 53.597 158.535 55.2217 159.499C56.8464 160.463 58.6968 160.981 60.5858 161.001H150.38C152.269 160.981 154.119 160.463 155.744 159.499C157.368 158.535 158.71 157.16 159.633 155.511C160.555 153.863 161.026 152 160.999 150.111C160.971 148.222 160.444 146.374 159.473 144.754L114.577 69.0528C113.645 67.4685 112.316 66.155 110.721 65.2423C109.126 64.3297 107.32 63.8496 105.483 63.8496C103.645 63.8496 101.839 64.3297 100.244 65.2423C98.6492 66.155 97.3202 67.4685 96.389 69.0528Z" fill="#F18D42"/>
<path d="M105.483 147.121C108.55 147.121 111.035 144.635 111.035 141.569C111.035 138.503 108.55 136.018 105.483 136.018C102.417 136.018 99.9316 138.503 99.9316 141.569C99.9316 144.635 102.417 147.121 105.483 147.121Z" fill="white"/>
<path d="M111.035 88.8281C111.035 85.762 108.55 83.2764 105.483 83.2764C102.417 83.2764 99.9316 85.762 99.9316 88.8281V119.363C99.9316 122.429 102.417 124.914 105.483 124.914C108.55 124.914 111.035 122.429 111.035 119.363V88.8281Z" fill="white"/>
</svg>
