<svg width="165" height="165" viewBox="0 0 165 165" fill="none" xmlns="http://www.w3.org/2000/svg">
<path fill-rule="evenodd" clip-rule="evenodd" d="M118.809 36.875V11.4158C118.809 5.16624 113.744 0.0996094 107.494 0.0996094H11.3149C5.06663 0.0996094 0 5.16624 0 11.4158V73.6491C0 79.8987 5.06663 84.964 11.3149 84.964H85.7698L118.809 36.875Z" fill="#D9D9D9"/>
<path fill-rule="evenodd" clip-rule="evenodd" d="M164.071 76.4785C164.071 98.3507 146.341 116.081 124.469 116.081C102.597 116.081 84.8652 98.3507 84.8652 76.4785C84.8652 54.605 102.597 36.875 124.469 36.875C146.331 36.8979 164.048 54.6152 164.071 76.4785Z" fill="#66D4F1"/>
<path fill-rule="evenodd" clip-rule="evenodd" d="M132.953 115.176V155.685C132.953 160.372 129.153 164.171 124.467 164.171C119.78 164.171 115.98 160.372 115.98 155.685V115.176C121.573 116.383 127.36 116.383 132.953 115.176Z" fill="#F18D42"/>
<path fill-rule="evenodd" clip-rule="evenodd" d="M115.98 130.225H132.953V144.369H115.98V130.225Z" fill="#E4E8EB"/>
<path fill-rule="evenodd" clip-rule="evenodd" d="M124.469 36.875V79.3066C124.469 85.5561 119.402 90.6215 113.153 90.6215H87.496C85.7528 86.1101 84.8602 81.3146 84.8653 76.4785C84.8653 54.605 102.597 36.875 124.469 36.875Z" fill="#4FC0E8"/>
<path fill-rule="evenodd" clip-rule="evenodd" d="M132.954 115.176V116.081C131.565 116.077 130.177 116.001 128.797 115.856C130.21 115.685 131.597 115.46 132.954 115.176Z" fill="#F2A149"/>
<path fill-rule="evenodd" clip-rule="evenodd" d="M128.626 115.856C127.245 116.001 125.857 116.077 124.469 116.081V115.176C125.826 115.46 127.213 115.685 128.626 115.856Z" fill="#F2A149"/>
<path fill-rule="evenodd" clip-rule="evenodd" d="M14.1438 70.82C12.5814 70.82 11.3145 69.5543 11.3145 67.9919V17.0735C11.3145 15.5111 12.5814 14.2441 14.1438 14.2441C15.7062 14.2441 16.9719 15.5111 16.9719 17.0735V67.9919C16.9719 69.5543 15.7062 70.82 14.1438 70.82Z" fill="#505763"/>
<path fill-rule="evenodd" clip-rule="evenodd" d="M104.665 45.0157C103.103 45.0157 101.836 43.75 101.836 42.1876V17.0735C101.836 15.5111 103.103 14.2441 104.665 14.2441C106.228 14.2441 107.493 15.5111 107.493 17.0735V42.1876C107.493 43.75 106.228 45.0157 104.665 45.0157Z" fill="#505763"/>
<path fill-rule="evenodd" clip-rule="evenodd" d="M25.4583 56.677C23.8959 56.677 22.6289 55.41 22.6289 53.8476V17.0735C22.6289 15.5111 23.8959 14.2441 25.4583 14.2441C27.0207 14.2441 28.2876 15.5111 28.2876 17.0735V53.8476C28.2876 55.41 27.0207 56.677 25.4583 56.677Z" fill="#505763"/>
<path fill-rule="evenodd" clip-rule="evenodd" d="M36.7734 56.677C35.211 56.677 33.9453 55.41 33.9453 53.8476V17.0735C33.9453 15.5111 35.211 14.2441 36.7734 14.2441C38.3358 14.2441 39.6028 15.5111 39.6028 17.0735V53.8476C39.6028 55.41 38.3358 56.677 36.7734 56.677Z" fill="#505763"/>
<path fill-rule="evenodd" clip-rule="evenodd" d="M48.0911 56.677C46.5287 56.677 45.2617 55.41 45.2617 53.8476V17.0735C45.2617 15.5111 46.5287 14.2441 48.0911 14.2441C49.6522 14.2441 50.9192 15.5111 50.9192 17.0735V53.8476C50.9192 55.41 49.6522 56.677 48.0911 56.677Z" fill="#505763"/>
<path fill-rule="evenodd" clip-rule="evenodd" d="M59.4055 56.677C57.8431 56.677 56.5762 55.41 56.5762 53.8476V17.0735C56.5762 15.5111 57.8431 14.2441 59.4055 14.2441C60.9679 14.2441 62.2336 15.5111 62.2336 17.0735V53.8476C62.2336 55.41 60.9679 56.677 59.4055 56.677Z" fill="#505763"/>
<path fill-rule="evenodd" clip-rule="evenodd" d="M70.72 56.677C69.1576 56.677 67.8906 55.41 67.8906 53.8476V17.0735C67.8906 15.5111 69.1576 14.2441 70.72 14.2441C72.2824 14.2441 73.5494 15.5111 73.5494 17.0735V53.8476C73.5494 55.41 72.2824 56.677 70.72 56.677Z" fill="#505763"/>
<path fill-rule="evenodd" clip-rule="evenodd" d="M82.0351 56.677C80.4727 56.677 79.207 55.41 79.207 53.8476V17.0735C79.207 15.5111 80.4727 14.2441 82.0351 14.2441C83.5975 14.2441 84.8645 15.5111 84.8645 17.0735V53.8476C84.8645 55.41 83.5975 56.677 82.0351 56.677Z" fill="#505763"/>
<path fill-rule="evenodd" clip-rule="evenodd" d="M93.3496 54.8383C91.7885 54.8383 90.5215 53.5713 90.5215 52.0089V17.0735C90.5215 15.5111 91.7885 14.2441 93.3496 14.2441C94.912 14.2441 96.1789 15.5111 96.1789 17.0735V52.0089C96.1789 53.5713 94.912 54.8383 93.3496 54.8383Z" fill="#505763"/>
<path fill-rule="evenodd" clip-rule="evenodd" d="M25.4583 70.8195C23.8959 70.8195 22.6289 69.5538 22.6289 67.9914V65.1621C22.6289 63.5997 23.8959 62.334 25.4583 62.334C27.0207 62.334 28.2876 63.5997 28.2876 65.1621V67.9914C28.2876 69.5538 27.0207 70.8195 25.4583 70.8195Z" fill="#505763"/>
<path fill-rule="evenodd" clip-rule="evenodd" d="M36.7734 70.8195C35.211 70.8195 33.9453 69.5538 33.9453 67.9914V65.1621C33.9453 63.5997 35.211 62.334 36.7734 62.334C38.3358 62.334 39.6028 63.5997 39.6028 65.1621V67.9914C39.6028 69.5538 38.3358 70.8195 36.7734 70.8195Z" fill="#505763"/>
<path fill-rule="evenodd" clip-rule="evenodd" d="M48.0911 70.8195C46.5287 70.8195 45.2617 69.5538 45.2617 67.9914V65.1621C45.2617 63.5997 46.5287 62.334 48.0911 62.334C49.6522 62.334 50.9192 63.5997 50.9192 65.1621V67.9914C50.9192 69.5538 49.6522 70.8195 48.0911 70.8195Z" fill="#505763"/>
<path fill-rule="evenodd" clip-rule="evenodd" d="M59.4055 70.8195C57.8431 70.8195 56.5762 69.5538 56.5762 67.9914V65.1621C56.5762 63.5997 57.8431 62.334 59.4055 62.334C60.9679 62.334 62.2336 63.5997 62.2336 65.1621V67.9914C62.2336 69.5538 60.9679 70.8195 59.4055 70.8195Z" fill="#505763"/>
<path fill-rule="evenodd" clip-rule="evenodd" d="M70.72 70.8195C69.1576 70.8195 67.8906 69.5538 67.8906 67.9914V65.1621C67.8906 63.5997 69.1576 62.334 70.72 62.334C72.2824 62.334 73.5494 63.5997 73.5494 65.1621V67.9914C73.5494 69.5538 72.2824 70.8195 70.72 70.8195Z" fill="#505763"/>
<path fill-rule="evenodd" clip-rule="evenodd" d="M82.0351 70.8195C80.4727 70.8195 79.207 69.5538 79.207 67.9914V65.1621C79.207 63.5997 80.4727 62.334 82.0351 62.334C83.5975 62.334 84.8645 63.5997 84.8645 65.1621V67.9914C84.8645 69.5538 83.5975 70.8195 82.0351 70.8195Z" fill="#505763"/>
<path fill-rule="evenodd" clip-rule="evenodd" d="M99.0091 43.3525C97.4467 43.3525 96.1797 44.6195 96.1797 46.1819V62.3343C96.1797 63.8966 97.4467 65.1623 99.0091 65.1623C100.571 65.1623 101.837 63.8966 101.837 62.3343V46.1819C101.837 44.6195 100.571 43.3525 99.0091 43.3525Z" fill="#3AADD9"/>
<path fill-rule="evenodd" clip-rule="evenodd" d="M99.0091 70.8193C97.4467 70.8193 96.1797 72.0863 96.1797 73.6487V76.4781C96.1797 78.0392 97.4467 79.3062 99.0091 79.3062C100.571 79.3062 101.837 78.0392 101.837 76.4781V73.6487C101.837 72.0863 100.571 70.8193 99.0091 70.8193Z" fill="#3AADD9"/>
<path fill-rule="evenodd" clip-rule="evenodd" d="M110.324 36.6768C108.761 36.6768 107.494 37.9437 107.494 39.5061V76.4789C107.494 78.04 108.761 79.307 110.324 79.307C111.886 79.307 113.152 78.04 113.152 76.4789V39.5061C113.152 37.9437 111.886 36.6768 110.324 36.6768Z" fill="#3AADD9"/>
</svg>
